<svg xmlns="http://www.w3.org/2000/svg" width="900" height="330" viewBox="0 0 900 330" role="img" aria-label="Aggregate throughput, mixed real prompts, TP2 (tok/s, peak of 3 rounds)">
<rect width="900" height="330" fill="#1a1a19"/>
<text x="24.0" y="30.0" font-family="system-ui,-apple-system,Segoe UI,sans-serif" font-size="16" fill="#ffffff" text-anchor="start" font-weight="600">Aggregate throughput, mixed real prompts, TP2 (tok/s, peak of 3 rounds)</text>
<rect x="24" y="47" width="12" height="12" rx="3" fill="#3987e5"/>
<text x="41.0" y="57.0" font-family="system-ui,-apple-system,Segoe UI,sans-serif" font-size="12" fill="#c3c2b7" text-anchor="start" font-weight="normal">knapcio stack (TP2 port)</text>
<rect x="235.8" y="47" width="12" height="12" rx="3" fill="#d95926"/>
<text x="252.8" y="57.0" font-family="system-ui,-apple-system,Segoe UI,sans-serif" font-size="12" fill="#c3c2b7" text-anchor="start" font-weight="normal">previous TP2 recipe</text>
<line x1="64" x2="824" y1="270.0" y2="270.0" stroke="#383835" stroke-width="1"/>
<text x="56.0" y="274.0" font-family="system-ui,-apple-system,Segoe UI,sans-serif" font-size="10" fill="#898781" text-anchor="end" font-weight="normal">0</text>
<line x1="64" x2="824" y1="234.0" y2="234.0" stroke="#2c2c2a" stroke-width="1"/>
<text x="56.0" y="238.0" font-family="system-ui,-apple-system,Segoe UI,sans-serif" font-size="10" fill="#898781" text-anchor="end" font-weight="normal">20</text>
<line x1="64" x2="824" y1="198.0" y2="198.0" stroke="#2c2c2a" stroke-width="1"/>
<text x="56.0" y="202.0" font-family="system-ui,-apple-system,Segoe UI,sans-serif" font-size="10" fill="#898781" text-anchor="end" font-weight="normal">40</text>
<line x1="64" x2="824" y1="162.0" y2="162.0" stroke="#2c2c2a" stroke-width="1"/>
<text x="56.0" y="166.0" font-family="system-ui,-apple-system,Segoe UI,sans-serif" font-size="10" fill="#898781" text-anchor="end" font-weight="normal">60</text>
<line x1="64" x2="824" y1="126.0" y2="126.0" stroke="#2c2c2a" stroke-width="1"/>
<text x="56.0" y="130.0" font-family="system-ui,-apple-system,Segoe UI,sans-serif" font-size="10" fill="#898781" text-anchor="end" font-weight="normal">80</text>
<line x1="64" x2="824" y1="90.0" y2="90.0" stroke="#2c2c2a" stroke-width="1"/>
<text x="56.0" y="94.0" font-family="system-ui,-apple-system,Segoe UI,sans-serif" font-size="10" fill="#898781" text-anchor="end" font-weight="normal">100</text>
<text x="64.0" y="288.0" font-family="system-ui,-apple-system,Segoe UI,sans-serif" font-size="11" fill="#898781" text-anchor="middle" font-weight="normal">C1</text>
<text x="216.0" y="288.0" font-family="system-ui,-apple-system,Segoe UI,sans-serif" font-size="11" fill="#898781" text-anchor="middle" font-weight="normal">C2</text>
<text x="368.0" y="288.0" font-family="system-ui,-apple-system,Segoe UI,sans-serif" font-size="11" fill="#898781" text-anchor="middle" font-weight="normal">C3</text>
<text x="520.0" y="288.0" font-family="system-ui,-apple-system,Segoe UI,sans-serif" font-size="11" fill="#898781" text-anchor="middle" font-weight="normal">C4</text>
<text x="672.0" y="288.0" font-family="system-ui,-apple-system,Segoe UI,sans-serif" font-size="11" fill="#898781" text-anchor="middle" font-weight="normal">C5</text>
<text x="824.0" y="288.0" font-family="system-ui,-apple-system,Segoe UI,sans-serif" font-size="11" fill="#898781" text-anchor="middle" font-weight="normal">C6</text>
<polyline points="64.0,148.9 216.0,118.8 368.0,137.9 520.0,140.2 672.0,122.6 824.0,151.7" fill="none" stroke="#3987e5" stroke-width="2" stroke-linejoin="round" stroke-linecap="round"/>
<circle cx="64.0" cy="148.9" r="4" fill="#3987e5" stroke="#1a1a19" stroke-width="2"/>
<circle cx="216.0" cy="118.8" r="4" fill="#3987e5" stroke="#1a1a19" stroke-width="2"/>
<circle cx="368.0" cy="137.9" r="4" fill="#3987e5" stroke="#1a1a19" stroke-width="2"/>
<circle cx="520.0" cy="140.2" r="4" fill="#3987e5" stroke="#1a1a19" stroke-width="2"/>
<circle cx="672.0" cy="122.6" r="4" fill="#3987e5" stroke="#1a1a19" stroke-width="2"/>
<circle cx="824.0" cy="151.7" r="4" fill="#3987e5" stroke="#1a1a19" stroke-width="2"/>
<polyline points="64.0,187.0 216.0,176.4 368.0,166.1 520.0,161.1 672.0,150.7 824.0,151.6" fill="none" stroke="#d95926" stroke-width="2" stroke-linejoin="round" stroke-linecap="round"/>
<circle cx="64.0" cy="187.0" r="4" fill="#d95926" stroke="#1a1a19" stroke-width="2"/>
<circle cx="216.0" cy="176.4" r="4" fill="#d95926" stroke="#1a1a19" stroke-width="2"/>
<circle cx="368.0" cy="166.1" r="4" fill="#d95926" stroke="#1a1a19" stroke-width="2"/>
<circle cx="520.0" cy="161.1" r="4" fill="#d95926" stroke="#1a1a19" stroke-width="2"/>
<circle cx="672.0" cy="150.7" r="4" fill="#d95926" stroke="#1a1a19" stroke-width="2"/>
<circle cx="824.0" cy="151.6" r="4" fill="#d95926" stroke="#1a1a19" stroke-width="2"/>
<circle cx="836.0" cy="151.6" r="3.5" fill="#d95926"/>
<text x="843.0" y="155.6" font-family="system-ui,-apple-system,Segoe UI,sans-serif" font-size="11" fill="#ffffff" text-anchor="start" font-weight="600">66</text>
<circle cx="836.0" cy="165.6" r="3.5" fill="#3987e5"/>
<text x="843.0" y="169.6" font-family="system-ui,-apple-system,Segoe UI,sans-serif" font-size="11" fill="#ffffff" text-anchor="start" font-weight="600">66</text>
<text x="24.0" y="322.0" font-family="system-ui,-apple-system,Segoe UI,sans-serif" font-size="10" fill="#898781" text-anchor="start" font-weight="normal">8 prompt types rotated across streams (no counting). knapcio lane A, 6 GiB KV, thinking low. Previous recipe 2026-09-18, same harness.</text>
</svg>